<svg width="40" height="40" viewBox="0 0 40 40" fill="none" xmlns="http://www.w3.org/2000/svg">
<g id="Plugin icon - 18" filter="url(#filter0_d_1111_3566)">
<g clip-path="url(#clip0_1111_3566)">
<rect x="4" width="32" height="32" rx="6" fill="black"/>
<g id="SSS" filter="url(#filter1_d_1111_3566)">
<mask id="path-2-inside-1_1111_3566" fill="white">
<path d="M11.5906 21.196C10.8346 21.196 10.1673 21.0607 9.58865 20.79C9.00998 20.5193 8.55732 20.132 8.23065 19.628C7.90398 19.124 7.74065 18.5173 7.74065 17.808V17.416H9.56065V17.808C9.56065 18.396 9.74265 18.8393 10.1066 19.138C10.4706 19.4273 10.9653 19.572 11.5906 19.572C12.2253 19.572 12.6966 19.446 13.0046 19.194C13.322 18.942 13.4806 18.62 13.4806 18.228C13.4806 17.9573 13.4013 17.738 13.2426 17.57C13.0933 17.402 12.8693 17.2667 12.5706 17.164C12.2813 17.052 11.9266 16.9493 11.5066 16.856L11.1846 16.786C10.5126 16.6367 9.93398 16.45 9.44865 16.226C8.97265 15.9927 8.60398 15.6893 8.34265 15.316C8.09065 14.9427 7.96465 14.4573 7.96465 13.86C7.96465 13.2627 8.10465 12.754 8.38465 12.334C8.67398 11.9047 9.07532 11.578 9.58865 11.354C10.1113 11.1207 10.7226 11.004 11.4226 11.004C12.1226 11.004 12.7433 11.1253 13.2846 11.368C13.8353 11.6013 14.2646 11.956 14.5726 12.432C14.89 12.8987 15.0486 13.4867 15.0486 14.196V14.616H13.2286V14.196C13.2286 13.8227 13.154 13.524 13.0046 13.3C12.8646 13.0667 12.6593 12.8987 12.3886 12.796C12.118 12.684 11.796 12.628 11.4226 12.628C10.8626 12.628 10.4473 12.7353 10.1766 12.95C9.91532 13.1553 9.78465 13.44 9.78465 13.804C9.78465 14.0467 9.84532 14.252 9.96665 14.42C10.0973 14.588 10.2886 14.728 10.5406 14.84C10.7926 14.952 11.1146 15.05 11.5066 15.134L11.8286 15.204C12.5286 15.3533 13.1353 15.5447 13.6486 15.778C14.1713 16.0113 14.5773 16.3193 14.8666 16.702C15.156 17.0847 15.3006 17.5747 15.3006 18.172C15.3006 18.7693 15.1466 19.2967 14.8386 19.754C14.54 20.202 14.1106 20.5567 13.5506 20.818C13 21.07 12.3466 21.196 11.5906 21.196ZM20.0809 21.196C19.3249 21.196 18.6575 21.0607 18.0789 20.79C17.5002 20.5193 17.0475 20.132 16.7209 19.628C16.3942 19.124 16.2309 18.5173 16.2309 17.808V17.416H18.0509V17.808C18.0509 18.396 18.2329 18.8393 18.5969 19.138C18.9609 19.4273 19.4555 19.572 20.0809 19.572C20.7155 19.572 21.1869 19.446 21.4949 19.194C21.8122 18.942 21.9709 18.62 21.9709 18.228C21.9709 17.9573 21.8915 17.738 21.7329 17.57C21.5835 17.402 21.3595 17.2667 21.0609 17.164C20.7715 17.052 20.4169 16.9493 19.9969 16.856L19.6749 16.786C19.0029 16.6367 18.4242 16.45 17.9389 16.226C17.4629 15.9927 17.0942 15.6893 16.8329 15.316C16.5809 14.9427 16.4549 14.4573 16.4549 13.86C16.4549 13.2627 16.5949 12.754 16.8749 12.334C17.1642 11.9047 17.5655 11.578 18.0789 11.354C18.6015 11.1207 19.2129 11.004 19.9129 11.004C20.6129 11.004 21.2335 11.1253 21.7749 11.368C22.3255 11.6013 22.7549 11.956 23.0629 12.432C23.3802 12.8987 23.5389 13.4867 23.5389 14.196V14.616H21.7189V14.196C21.7189 13.8227 21.6442 13.524 21.4949 13.3C21.3549 13.0667 21.1495 12.8987 20.8789 12.796C20.6082 12.684 20.2862 12.628 19.9129 12.628C19.3529 12.628 18.9375 12.7353 18.6669 12.95C18.4055 13.1553 18.2749 13.44 18.2749 13.804C18.2749 14.0467 18.3355 14.252 18.4569 14.42C18.5875 14.588 18.7789 14.728 19.0309 14.84C19.2829 14.952 19.6049 15.05 19.9969 15.134L20.3189 15.204C21.0189 15.3533 21.6255 15.5447 22.1389 15.778C22.6615 16.0113 23.0675 16.3193 23.3569 16.702C23.6462 17.0847 23.7909 17.5747 23.7909 18.172C23.7909 18.7693 23.6369 19.2967 23.3289 19.754C23.0302 20.202 22.6009 20.5567 22.0409 20.818C21.4902 21.07 20.8369 21.196 20.0809 21.196ZM28.5711 21.196C27.8151 21.196 27.1478 21.0607 26.5691 20.79C25.9905 20.5193 25.5378 20.132 25.2111 19.628C24.8845 19.124 24.7211 18.5173 24.7211 17.808V17.416H26.5411V17.808C26.5411 18.396 26.7231 18.8393 27.0871 19.138C27.4511 19.4273 27.9458 19.572 28.5711 19.572C29.2058 19.572 29.6771 19.446 29.9851 19.194C30.3025 18.942 30.4611 18.62 30.4611 18.228C30.4611 17.9573 30.3818 17.738 30.2231 17.57C30.0738 17.402 29.8498 17.2667 29.5511 17.164C29.2618 17.052 28.9071 16.9493 28.4871 16.856L28.1651 16.786C27.4931 16.6367 26.9145 16.45 26.4291 16.226C25.9531 15.9927 25.5845 15.6893 25.3231 15.316C25.0711 14.9427 24.9451 14.4573 24.9451 13.86C24.9451 13.2627 25.0851 12.754 25.3651 12.334C25.6545 11.9047 26.0558 11.578 26.5691 11.354C27.0918 11.1207 27.7031 11.004 28.4031 11.004C29.1031 11.004 29.7238 11.1253 30.2651 11.368C30.8158 11.6013 31.2451 11.956 31.5531 12.432C31.8705 12.8987 32.0291 13.4867 32.0291 14.196V14.616H30.2091V14.196C30.2091 13.8227 30.1345 13.524 29.9851 13.3C29.8451 13.0667 29.6398 12.8987 29.3691 12.796C29.0985 12.684 28.7765 12.628 28.4031 12.628C27.8431 12.628 27.4278 12.7353 27.1571 12.95C26.8958 13.1553 26.7651 13.44 26.7651 13.804C26.7651 14.0467 26.8258 14.252 26.9471 14.42C27.0778 14.588 27.2691 14.728 27.5211 14.84C27.7731 14.952 28.0951 15.05 28.4871 15.134L28.8091 15.204C29.5091 15.3533 30.1158 15.5447 30.6291 15.778C31.1518 16.0113 31.5578 16.3193 31.8471 16.702C32.1365 17.0847 32.2811 17.5747 32.2811 18.172C32.2811 18.7693 32.1271 19.2967 31.8191 19.754C31.5205 20.202 31.0911 20.5567 30.5311 20.818C29.9805 21.07 29.3271 21.196 28.5711 21.196Z"/>
</mask>
<path d="M11.5906 21.196C10.8346 21.196 10.1673 21.0607 9.58865 20.79C9.00998 20.5193 8.55732 20.132 8.23065 19.628C7.90398 19.124 7.74065 18.5173 7.74065 17.808V17.416H9.56065V17.808C9.56065 18.396 9.74265 18.8393 10.1066 19.138C10.4706 19.4273 10.9653 19.572 11.5906 19.572C12.2253 19.572 12.6966 19.446 13.0046 19.194C13.322 18.942 13.4806 18.62 13.4806 18.228C13.4806 17.9573 13.4013 17.738 13.2426 17.57C13.0933 17.402 12.8693 17.2667 12.5706 17.164C12.2813 17.052 11.9266 16.9493 11.5066 16.856L11.1846 16.786C10.5126 16.6367 9.93398 16.45 9.44865 16.226C8.97265 15.9927 8.60398 15.6893 8.34265 15.316C8.09065 14.9427 7.96465 14.4573 7.96465 13.86C7.96465 13.2627 8.10465 12.754 8.38465 12.334C8.67398 11.9047 9.07532 11.578 9.58865 11.354C10.1113 11.1207 10.7226 11.004 11.4226 11.004C12.1226 11.004 12.7433 11.1253 13.2846 11.368C13.8353 11.6013 14.2646 11.956 14.5726 12.432C14.89 12.8987 15.0486 13.4867 15.0486 14.196V14.616H13.2286V14.196C13.2286 13.8227 13.154 13.524 13.0046 13.3C12.8646 13.0667 12.6593 12.8987 12.3886 12.796C12.118 12.684 11.796 12.628 11.4226 12.628C10.8626 12.628 10.4473 12.7353 10.1766 12.95C9.91532 13.1553 9.78465 13.44 9.78465 13.804C9.78465 14.0467 9.84532 14.252 9.96665 14.42C10.0973 14.588 10.2886 14.728 10.5406 14.84C10.7926 14.952 11.1146 15.05 11.5066 15.134L11.8286 15.204C12.5286 15.3533 13.1353 15.5447 13.6486 15.778C14.1713 16.0113 14.5773 16.3193 14.8666 16.702C15.156 17.0847 15.3006 17.5747 15.3006 18.172C15.3006 18.7693 15.1466 19.2967 14.8386 19.754C14.54 20.202 14.1106 20.5567 13.5506 20.818C13 21.07 12.3466 21.196 11.5906 21.196ZM20.0809 21.196C19.3249 21.196 18.6575 21.0607 18.0789 20.79C17.5002 20.5193 17.0475 20.132 16.7209 19.628C16.3942 19.124 16.2309 18.5173 16.2309 17.808V17.416H18.0509V17.808C18.0509 18.396 18.2329 18.8393 18.5969 19.138C18.9609 19.4273 19.4555 19.572 20.0809 19.572C20.7155 19.572 21.1869 19.446 21.4949 19.194C21.8122 18.942 21.9709 18.62 21.9709 18.228C21.9709 17.9573 21.8915 17.738 21.7329 17.57C21.5835 17.402 21.3595 17.2667 21.0609 17.164C20.7715 17.052 20.4169 16.9493 19.9969 16.856L19.6749 16.786C19.0029 16.6367 18.4242 16.45 17.9389 16.226C17.4629 15.9927 17.0942 15.6893 16.8329 15.316C16.5809 14.9427 16.4549 14.4573 16.4549 13.86C16.4549 13.2627 16.5949 12.754 16.8749 12.334C17.1642 11.9047 17.5655 11.578 18.0789 11.354C18.6015 11.1207 19.2129 11.004 19.9129 11.004C20.6129 11.004 21.2335 11.1253 21.7749 11.368C22.3255 11.6013 22.7549 11.956 23.0629 12.432C23.3802 12.8987 23.5389 13.4867 23.5389 14.196V14.616H21.7189V14.196C21.7189 13.8227 21.6442 13.524 21.4949 13.3C21.3549 13.0667 21.1495 12.8987 20.8789 12.796C20.6082 12.684 20.2862 12.628 19.9129 12.628C19.3529 12.628 18.9375 12.7353 18.6669 12.95C18.4055 13.1553 18.2749 13.44 18.2749 13.804C18.2749 14.0467 18.3355 14.252 18.4569 14.42C18.5875 14.588 18.7789 14.728 19.0309 14.84C19.2829 14.952 19.6049 15.05 19.9969 15.134L20.3189 15.204C21.0189 15.3533 21.6255 15.5447 22.1389 15.778C22.6615 16.0113 23.0675 16.3193 23.3569 16.702C23.6462 17.0847 23.7909 17.5747 23.7909 18.172C23.7909 18.7693 23.6369 19.2967 23.3289 19.754C23.0302 20.202 22.6009 20.5567 22.0409 20.818C21.4902 21.07 20.8369 21.196 20.0809 21.196ZM28.5711 21.196C27.8151 21.196 27.1478 21.0607 26.5691 20.79C25.9905 20.5193 25.5378 20.132 25.2111 19.628C24.8845 19.124 24.7211 18.5173 24.7211 17.808V17.416H26.5411V17.808C26.5411 18.396 26.7231 18.8393 27.0871 19.138C27.4511 19.4273 27.9458 19.572 28.5711 19.572C29.2058 19.572 29.6771 19.446 29.9851 19.194C30.3025 18.942 30.4611 18.62 30.4611 18.228C30.4611 17.9573 30.3818 17.738 30.2231 17.57C30.0738 17.402 29.8498 17.2667 29.5511 17.164C29.2618 17.052 28.9071 16.9493 28.4871 16.856L28.1651 16.786C27.4931 16.6367 26.9145 16.45 26.4291 16.226C25.9531 15.9927 25.5845 15.6893 25.3231 15.316C25.0711 14.9427 24.9451 14.4573 24.9451 13.86C24.9451 13.2627 25.0851 12.754 25.3651 12.334C25.6545 11.9047 26.0558 11.578 26.5691 11.354C27.0918 11.1207 27.7031 11.004 28.4031 11.004C29.1031 11.004 29.7238 11.1253 30.2651 11.368C30.8158 11.6013 31.2451 11.956 31.5531 12.432C31.8705 12.8987 32.0291 13.4867 32.0291 14.196V14.616H30.2091V14.196C30.2091 13.8227 30.1345 13.524 29.9851 13.3C29.8451 13.0667 29.6398 12.8987 29.3691 12.796C29.0985 12.684 28.7765 12.628 28.4031 12.628C27.8431 12.628 27.4278 12.7353 27.1571 12.95C26.8958 13.1553 26.7651 13.44 26.7651 13.804C26.7651 14.0467 26.8258 14.252 26.9471 14.42C27.0778 14.588 27.2691 14.728 27.5211 14.84C27.7731 14.952 28.0951 15.05 28.4871 15.134L28.8091 15.204C29.5091 15.3533 30.1158 15.5447 30.6291 15.778C31.1518 16.0113 31.5578 16.3193 31.8471 16.702C32.1365 17.0847 32.2811 17.5747 32.2811 18.172C32.2811 18.7693 32.1271 19.2967 31.8191 19.754C31.5205 20.202 31.0911 20.5567 30.5311 20.818C29.9805 21.07 29.3271 21.196 28.5711 21.196Z" fill="white"/>
<path d="M9.58865 20.79L8.74128 22.6016L8.74128 22.6016L9.58865 20.79ZM8.23065 19.628L9.90895 18.5402L9.90895 18.5402L8.23065 19.628ZM7.74065 17.416V15.416H5.74065V17.416H7.74065ZM9.56065 17.416H11.5606V15.416H9.56065V17.416ZM10.1066 19.138L8.83802 20.6841L8.85001 20.694L8.86216 20.7036L10.1066 19.138ZM13.0046 19.194L11.7609 17.6278L11.7495 17.6368L11.7382 17.6461L13.0046 19.194ZM13.2426 17.57L11.7478 18.8987L11.7679 18.9213L11.7886 18.9432L13.2426 17.57ZM12.5706 17.164L11.8487 19.0291L11.8843 19.0429L11.9205 19.0554L12.5706 17.164ZM11.5066 16.856L11.9405 14.9036L11.9315 14.9016L11.5066 16.856ZM11.1846 16.786L10.7508 18.7384L10.7598 18.7404L11.1846 16.786ZM9.44865 16.226L8.56833 18.0218L8.58932 18.0321L8.61053 18.0419L9.44865 16.226ZM8.34265 15.316L6.68495 16.4349L6.69445 16.449L6.70418 16.4629L8.34265 15.316ZM8.38465 12.334L6.72609 11.2163L6.72055 11.2246L8.38465 12.334ZM9.58865 11.354L10.3885 13.1871L10.3963 13.1837L10.404 13.1803L9.58865 11.354ZM13.2846 11.368L12.4665 13.193L12.4854 13.2015L12.5044 13.2095L13.2846 11.368ZM14.5726 12.432L12.8935 13.5185L12.9059 13.5377L12.9188 13.5566L14.5726 12.432ZM15.0486 14.616V16.616H17.0486V14.616H15.0486ZM13.2286 14.616H11.2286V16.616H13.2286V14.616ZM13.0046 13.3L11.2897 14.329L11.3141 14.3698L11.3405 14.4094L13.0046 13.3ZM12.3886 12.796L11.6239 14.644L11.6515 14.6554L11.6793 14.666L12.3886 12.796ZM10.1766 12.95L11.4123 14.5227L11.4194 14.517L10.1766 12.95ZM9.96665 14.42L8.34529 15.591L8.36611 15.6198L8.38794 15.6479L9.96665 14.42ZM11.5066 15.134L11.9315 13.1796L11.9257 13.1784L11.5066 15.134ZM11.8286 15.204L11.4038 17.1584L11.4114 17.16L11.8286 15.204ZM13.6486 15.778L12.821 17.5988L12.8333 17.6043L13.6486 15.778ZM14.8666 16.702L16.462 15.4958L16.462 15.4958L14.8666 16.702ZM14.8386 19.754L13.1798 18.6368L13.1745 18.6446L14.8386 19.754ZM13.5506 20.818L14.3829 22.6366L14.3897 22.6335L14.3964 22.6304L13.5506 20.818ZM11.5906 19.196C11.0743 19.196 10.7052 19.1043 10.436 18.9784L8.74128 22.6016C9.62946 23.0171 10.595 23.196 11.5906 23.196V19.196ZM10.436 18.9784C10.1741 18.8559 10.0188 18.7096 9.90895 18.5402L6.55234 20.7158C7.09587 21.5544 7.84587 22.1828 8.74128 22.6016L10.436 18.9784ZM9.90895 18.5402C9.82783 18.415 9.74065 18.2024 9.74065 17.808H5.74065C5.74065 18.8323 5.98013 19.833 6.55234 20.7158L9.90895 18.5402ZM9.74065 17.808V17.416H5.74065V17.808H9.74065ZM7.74065 19.416H9.56065V15.416H7.74065V19.416ZM7.56065 17.416V17.808H11.5606V17.416H7.56065ZM7.56065 17.808C7.56065 18.8322 7.89843 19.9132 8.83802 20.6841L11.3753 17.5919C11.4101 17.6204 11.4461 17.6573 11.4786 17.7015C11.5111 17.7456 11.5333 17.7877 11.5473 17.822C11.5749 17.8893 11.5606 17.8989 11.5606 17.808H7.56065ZM8.86216 20.7036C9.685 21.3577 10.6687 21.572 11.5906 21.572V17.572C11.429 17.572 11.343 17.553 11.312 17.5439C11.2862 17.5364 11.3096 17.5393 11.3511 17.5724L8.86216 20.7036ZM11.5906 21.572C12.4297 21.572 13.4475 21.4158 14.2711 20.7419L11.7382 17.6461C11.8479 17.5563 11.9254 17.5395 11.9036 17.5453C11.8932 17.5481 11.8633 17.5551 11.8096 17.5612C11.7561 17.5673 11.6839 17.572 11.5906 17.572V21.572ZM14.2484 20.7602C15.0248 20.1437 15.4806 19.2536 15.4806 18.228H11.4806C11.4806 18.1461 11.4993 18.0181 11.5676 17.8795C11.6349 17.7429 11.7179 17.6619 11.7609 17.6278L14.2484 20.7602ZM15.4806 18.228C15.4806 17.5402 15.2653 16.7988 14.6967 16.1968L11.7886 18.9432C11.6779 18.826 11.5931 18.6864 11.5404 18.5408C11.4896 18.4004 11.4806 18.2881 11.4806 18.228H15.4806ZM14.7375 16.2413C14.2856 15.7329 13.72 15.4442 13.2208 15.2726L11.9205 19.0554C11.9623 19.0697 11.9596 19.0732 11.9284 19.0543C11.8961 19.0348 11.8264 18.9871 11.7478 18.8987L14.7375 16.2413ZM13.2926 15.2989C12.8816 15.1397 12.4241 15.0111 11.9405 14.9036L11.0728 18.8084C11.4292 18.8876 11.6811 18.9643 11.8487 19.0291L13.2926 15.2989ZM11.9315 14.9016L11.6095 14.8316L10.7598 18.7404L11.0818 18.8104L11.9315 14.9016ZM11.6185 14.8336C11.0482 14.7069 10.6118 14.5601 10.2868 14.4101L8.61053 18.0419C9.25616 18.3399 9.97711 18.5664 10.7508 18.7384L11.6185 14.8336ZM10.329 14.4302C10.1066 14.3211 10.0191 14.2233 9.98111 14.1691L6.70418 16.4629C7.18888 17.1554 7.83873 17.6642 8.56833 18.0218L10.329 14.4302ZM10.0003 14.1971C10.0336 14.2463 9.96465 14.1864 9.96465 13.86H5.96465C5.96465 14.7282 6.14768 15.639 6.68495 16.4349L10.0003 14.1971ZM9.96465 13.86C9.96465 13.5837 10.0254 13.4784 10.0487 13.4434L6.72055 11.2246C6.18389 12.0296 5.96465 12.9416 5.96465 13.86H9.96465ZM10.0432 13.4517C10.1027 13.3634 10.1939 13.272 10.3885 13.1871L8.78876 9.52092C7.95672 9.88399 7.24527 10.4459 6.72612 11.2163L10.0432 13.4517ZM10.404 13.1803C10.6195 13.084 10.9424 13.004 11.4226 13.004V9.004C10.5029 9.004 9.60309 9.1573 8.77335 9.52772L10.404 13.1803ZM11.4226 13.004C11.8908 13.004 12.2246 13.0846 12.4665 13.193L14.1028 9.54298C13.262 9.16608 12.3545 9.004 11.4226 9.004V13.004ZM12.5044 13.2095C12.708 13.2958 12.8151 13.3973 12.8935 13.5185L16.2518 11.3455C15.7142 10.5147 14.9627 9.90689 14.0649 9.5265L12.5044 13.2095ZM12.9188 13.5566C12.9588 13.6154 13.0486 13.7845 13.0486 14.196H17.0486C17.0486 13.1888 16.8212 12.1819 16.2265 11.3074L12.9188 13.5566ZM13.0486 14.196V14.616H17.0486V14.196H13.0486ZM15.0486 12.616H13.2286V16.616H15.0486V12.616ZM15.2286 14.616V14.196H11.2286V14.616H15.2286ZM15.2286 14.196C15.2286 13.5754 15.1067 12.8475 14.6687 12.1906L11.3405 14.4094C11.2712 14.3054 11.2428 14.2187 11.2324 14.1771C11.2227 14.1384 11.2286 14.1395 11.2286 14.196H15.2286ZM14.7196 12.271C14.3331 11.6267 13.7601 11.1771 13.098 10.926L11.6793 14.666C11.6311 14.6477 11.5582 14.6115 11.4792 14.5469C11.399 14.4813 11.3351 14.4047 11.2897 14.329L14.7196 12.271ZM13.1534 10.948C12.5836 10.7122 11.9893 10.628 11.4226 10.628V14.628C11.6027 14.628 11.6523 14.6558 11.6239 14.644L13.1534 10.948ZM11.4226 10.628C10.6712 10.628 9.71858 10.7606 8.93386 11.383L11.4194 14.517C11.3549 14.5682 11.2974 14.6004 11.2566 14.6196C11.2165 14.6384 11.1924 14.6447 11.1916 14.6449C11.1908 14.6451 11.2084 14.6405 11.2485 14.6361C11.2885 14.6317 11.3457 14.628 11.4226 14.628V10.628ZM8.941 11.3774C8.14677 12.0014 7.78465 12.8932 7.78465 13.804H11.7846C11.7846 13.8636 11.7731 13.9933 11.7003 14.1518C11.625 14.3159 11.5159 14.4413 11.4123 14.5226L8.941 11.3774ZM7.78465 13.804C7.78465 14.3929 7.93767 15.0266 8.34529 15.591L11.588 13.249C11.664 13.3543 11.7166 13.4665 11.7482 13.5733C11.7789 13.6773 11.7846 13.7586 11.7846 13.804H7.78465ZM8.38794 15.6479C8.77181 16.1414 9.26176 16.4602 9.72837 16.6676L11.3529 13.0124C11.3155 12.9958 11.4228 13.0346 11.5454 13.1921L8.38794 15.6479ZM9.72837 16.6676C10.1494 16.8547 10.6155 16.9884 11.0876 17.0896L11.9257 13.1784C11.6138 13.1116 11.4359 13.0493 11.3529 13.0124L9.72837 16.6676ZM11.0818 17.0884L11.4038 17.1584L12.2535 13.2496L11.9315 13.1796L11.0818 17.0884ZM11.4114 17.16C12.0059 17.2868 12.4688 17.4386 12.821 17.5987L14.4763 13.9573C13.8018 13.6507 13.0514 13.4198 12.2459 13.248L11.4114 17.16ZM12.8333 17.6043C13.1073 17.7266 13.2215 17.8423 13.2713 17.9082L16.462 15.4958C15.9332 14.7964 15.2353 14.2961 14.464 13.9517L12.8333 17.6043ZM13.2713 17.9082C13.2615 17.8952 13.2654 17.8937 13.274 17.9228C13.2838 17.9559 13.3006 18.0335 13.3006 18.172H17.3006C17.3006 17.2478 17.0726 16.3034 16.462 15.4958L13.2713 17.9082ZM13.3006 18.172C13.3006 18.406 13.2468 18.5373 13.1798 18.6368L16.4975 20.8712C17.0465 20.056 17.3006 19.1326 17.3006 18.172H13.3006ZM13.1745 18.6446C13.1077 18.7449 12.9829 18.8759 12.7049 19.0056L14.3964 22.6304C15.2384 22.2374 15.9723 21.6591 16.5027 20.8634L13.1745 18.6446ZM12.7184 18.9994C12.4853 19.106 12.1287 19.196 11.5906 19.196V23.196C12.5646 23.196 13.5146 23.034 14.3829 22.6366L12.7184 18.9994ZM18.0789 20.79L17.2315 22.6016L17.2315 22.6016L18.0789 20.79ZM16.7209 19.628L18.3992 18.5402L18.3992 18.5402L16.7209 19.628ZM16.2309 17.416V15.416H14.2309V17.416H16.2309ZM18.0509 17.416H20.0509V15.416H18.0509V17.416ZM18.5969 19.138L17.3282 20.6841L17.3402 20.694L17.3524 20.7036L18.5969 19.138ZM21.4949 19.194L20.2511 17.6278L20.2397 17.6368L20.2284 17.6461L21.4949 19.194ZM21.7329 17.57L20.2381 18.8987L20.2581 18.9213L20.2789 18.9432L21.7329 17.57ZM21.0609 17.164L20.3389 19.0291L20.3746 19.0429L20.4107 19.0554L21.0609 17.164ZM19.9969 16.856L20.4307 14.9036L20.4217 14.9016L19.9969 16.856ZM19.6749 16.786L19.241 18.7384L19.25 18.7404L19.6749 16.786ZM17.9389 16.226L17.0586 18.0218L17.0795 18.0321L17.1008 18.0419L17.9389 16.226ZM16.8329 15.316L15.1752 16.4349L15.1847 16.449L15.1944 16.4629L16.8329 15.316ZM16.8749 12.334L15.2163 11.2163L15.2108 11.2246L16.8749 12.334ZM18.0789 11.354L18.8788 13.1871L18.8865 13.1837L18.8942 13.1803L18.0789 11.354ZM21.7749 11.368L20.9568 13.193L20.9756 13.2015L20.9946 13.2095L21.7749 11.368ZM23.0629 12.432L21.3837 13.5185L21.3962 13.5377L21.409 13.5566L23.0629 12.432ZM23.5389 14.616V16.616H25.5389V14.616H23.5389ZM21.7189 14.616H19.7189V16.616H21.7189V14.616ZM21.4949 13.3L19.7799 14.329L19.8044 14.3698L19.8308 14.4094L21.4949 13.3ZM20.8789 12.796L20.1142 14.644L20.1417 14.6554L20.1696 14.666L20.8789 12.796ZM18.6669 12.95L19.9025 14.5227L19.9097 14.517L18.6669 12.95ZM18.4569 14.42L16.8355 15.591L16.8563 15.6198L16.8782 15.6479L18.4569 14.42ZM19.9969 15.134L20.4217 13.1796L20.4159 13.1784L19.9969 15.134ZM20.3189 15.204L19.894 17.1584L19.9016 17.16L20.3189 15.204ZM22.1389 15.778L21.3113 17.5988L21.3236 17.6043L22.1389 15.778ZM23.3569 16.702L24.9522 15.4958L24.9522 15.4958L23.3569 16.702ZM23.3289 19.754L21.67 18.6368L21.6648 18.6446L23.3289 19.754ZM22.0409 20.818L22.8731 22.6366L22.8799 22.6335L22.8867 22.6304L22.0409 20.818ZM20.0809 19.196C19.5646 19.196 19.1954 19.1043 18.9263 18.9784L17.2315 22.6016C18.1197 23.0171 19.0852 23.196 20.0809 23.196V19.196ZM18.9263 18.9784C18.6643 18.8559 18.509 18.7096 18.3992 18.5402L15.0426 20.7158C15.5861 21.5544 16.3361 22.1828 17.2315 22.6016L18.9263 18.9784ZM18.3992 18.5402C18.3181 18.415 18.2309 18.2024 18.2309 17.808H14.2309C14.2309 18.8323 14.4704 19.833 15.0426 20.7158L18.3992 18.5402ZM18.2309 17.808V17.416H14.2309V17.808H18.2309ZM16.2309 19.416H18.0509V15.416H16.2309V19.416ZM16.0509 17.416V17.808H20.0509V17.416H16.0509ZM16.0509 17.808C16.0509 18.8322 16.3887 19.9132 17.3282 20.6841L19.8655 17.5919C19.9003 17.6204 19.9363 17.6573 19.9689 17.7015C20.0013 17.7456 20.0235 17.7877 20.0375 17.822C20.0652 17.8893 20.0509 17.8989 20.0509 17.808H16.0509ZM17.3524 20.7036C18.1752 21.3577 19.159 21.572 20.0809 21.572V17.572C19.9192 17.572 19.8333 17.553 19.8023 17.5439C19.7764 17.5364 19.7998 17.5393 19.8414 17.5724L17.3524 20.7036ZM20.0809 21.572C20.9199 21.572 21.9378 21.4158 22.7614 20.7419L20.2284 17.6461C20.3381 17.5563 20.4157 17.5395 20.3939 17.5453C20.3834 17.5481 20.3536 17.5551 20.2999 17.5612C20.2463 17.5673 20.1742 17.572 20.0809 17.572V21.572ZM22.7386 20.7602C23.515 20.1437 23.9709 19.2536 23.9709 18.228H19.9709C19.9709 18.1461 19.9896 18.0181 20.0579 17.8795C20.1252 17.7429 20.2082 17.6619 20.2511 17.6278L22.7386 20.7602ZM23.9709 18.228C23.9709 17.5402 23.7555 16.7988 23.1869 16.1968L20.2789 18.9432C20.1682 18.826 20.0833 18.6864 20.0306 18.5408C19.9799 18.4004 19.9709 18.2881 19.9709 18.228H23.9709ZM23.2277 16.2413C22.7758 15.7329 22.2102 15.4442 21.711 15.2726L20.4107 19.0554C20.4525 19.0697 20.4498 19.0732 20.4187 19.0543C20.3863 19.0348 20.3166 18.9871 20.2381 18.8987L23.2277 16.2413ZM21.7829 15.2989C21.3718 15.1397 20.9143 15.0111 20.4307 14.9036L19.563 18.8084C19.9194 18.8876 20.1713 18.9643 20.3389 19.0291L21.7829 15.2989ZM20.4217 14.9016L20.0997 14.8316L19.25 18.7404L19.572 18.8104L20.4217 14.9016ZM20.1087 14.8336C19.5384 14.7069 19.102 14.5601 18.777 14.4101L17.1008 18.0419C17.7464 18.3399 18.4673 18.5664 19.241 18.7384L20.1087 14.8336ZM18.8192 14.4302C18.5968 14.3211 18.5093 14.2233 18.4713 14.1691L15.1944 16.4629C15.6791 17.1554 16.329 17.6642 17.0586 18.0218L18.8192 14.4302ZM18.4906 14.1971C18.5239 14.2463 18.4549 14.1864 18.4549 13.86H14.4549C14.4549 14.7282 14.6379 15.639 15.1752 16.4349L18.4906 14.1971ZM18.4549 13.86C18.4549 13.5837 18.5156 13.4784 18.539 13.4434L15.2108 11.2246C14.6741 12.0296 14.4549 12.9416 14.4549 13.86H18.4549ZM18.5334 13.4517C18.5929 13.3634 18.6841 13.272 18.8788 13.1871L17.279 9.52092C16.447 9.88399 15.7355 10.4459 15.2164 11.2163L18.5334 13.4517ZM18.8942 13.1803C19.1098 13.084 19.4327 13.004 19.9129 13.004V9.004C18.9931 9.004 18.0933 9.1573 17.2636 9.52772L18.8942 13.1803ZM19.9129 13.004C20.381 13.004 20.7149 13.0846 20.9568 13.193L22.593 9.54298C21.7522 9.16608 20.8447 9.004 19.9129 9.004V13.004ZM20.9946 13.2095C21.1982 13.2958 21.3053 13.3973 21.3837 13.5185L24.742 11.3455C24.2044 10.5147 23.4529 9.90689 22.5552 9.5265L20.9946 13.2095ZM21.409 13.5566C21.449 13.6154 21.5389 13.7845 21.5389 14.196H25.5389C25.5389 13.1888 25.3114 12.1819 24.7167 11.3074L21.409 13.5566ZM21.5389 14.196V14.616H25.5389V14.196H21.5389ZM23.5389 12.616H21.7189V16.616H23.5389V12.616ZM23.7189 14.616V14.196H19.7189V14.616H23.7189ZM23.7189 14.196C23.7189 13.5754 23.5969 12.8475 23.159 12.1906L19.8308 14.4094C19.7615 14.3054 19.733 14.2187 19.7226 14.1771C19.7129 14.1384 19.7189 14.1395 19.7189 14.196H23.7189ZM23.2099 12.271C22.8233 11.6267 22.2503 11.1771 21.5882 10.926L20.1696 14.666C20.1214 14.6477 20.0484 14.6115 19.9694 14.5469C19.8892 14.4813 19.8253 14.4047 19.7799 14.329L23.2099 12.271ZM21.6436 10.948C21.0739 10.7122 20.4795 10.628 19.9129 10.628V14.628C20.0929 14.628 20.1426 14.6558 20.1142 14.644L21.6436 10.948ZM19.9129 10.628C19.1614 10.628 18.2088 10.7606 17.4241 11.383L19.9097 14.517C19.8452 14.5682 19.7877 14.6004 19.7468 14.6196C19.7067 14.6384 19.6826 14.6447 19.6818 14.6449C19.6811 14.6451 19.6986 14.6405 19.7388 14.6361C19.7787 14.6317 19.836 14.628 19.9129 14.628V10.628ZM17.4312 11.3774C16.637 12.0014 16.2749 12.8932 16.2749 13.804H20.2749C20.2749 13.8636 20.2633 13.9933 20.1905 14.1518C20.1152 14.3159 20.0061 14.4413 19.9025 14.5226L17.4312 11.3774ZM16.2749 13.804C16.2749 14.3929 16.4279 15.0266 16.8355 15.591L20.0782 13.249C20.1543 13.3543 20.2069 13.4665 20.2384 13.5733C20.2691 13.6773 20.2749 13.7586 20.2749 13.804H16.2749ZM16.8782 15.6479C17.262 16.1414 17.752 16.4602 18.2186 16.6676L19.8432 13.0124C19.8058 12.9958 19.9131 13.0346 20.0356 13.1921L16.8782 15.6479ZM18.2186 16.6676C18.6396 16.8547 19.1057 16.9884 19.5778 17.0896L20.4159 13.1784C20.104 13.1116 19.9261 13.0493 19.8432 13.0124L18.2186 16.6676ZM19.572 17.0884L19.894 17.1584L20.7437 13.2496L20.4217 13.1796L19.572 17.0884ZM19.9016 17.16C20.4962 17.2868 20.9591 17.4386 21.3113 17.5987L22.9665 13.9573C22.292 13.6507 21.5416 13.4198 20.7362 13.248L19.9016 17.16ZM21.3236 17.6043C21.5975 17.7266 21.7117 17.8423 21.7616 17.9082L24.9522 15.4958C24.4234 14.7964 23.7256 14.2961 22.9542 13.9517L21.3236 17.6043ZM21.7616 17.9082C21.7517 17.8952 21.7556 17.8937 21.7642 17.9228C21.774 17.9559 21.7909 18.0335 21.7909 18.172H25.7909C25.7909 17.2478 25.5628 16.3034 24.9522 15.4958L21.7616 17.9082ZM21.7909 18.172C21.7909 18.406 21.737 18.5373 21.67 18.6368L24.9878 20.8712C25.5368 20.056 25.7909 19.1326 25.7909 18.172H21.7909ZM21.6648 18.6446C21.5979 18.7449 21.4731 18.8759 21.1951 19.0056L22.8867 22.6304C23.7287 22.2374 24.4625 21.6591 24.993 20.8634L21.6648 18.6446ZM21.2086 18.9994C20.9756 19.106 20.619 19.196 20.0809 19.196V23.196C21.0548 23.196 22.0049 23.034 22.8731 22.6366L21.2086 18.9994ZM26.5691 20.79L25.7217 22.6016L25.7217 22.6016L26.5691 20.79ZM25.2111 19.628L26.8894 18.5402L26.8894 18.5402L25.2111 19.628ZM24.7211 17.416V15.416H22.7211V17.416H24.7211ZM26.5411 17.416H28.5411V15.416H26.5411V17.416ZM27.0871 19.138L25.8185 20.6841L25.8305 20.694L25.8426 20.7036L27.0871 19.138ZM29.9851 19.194L28.7414 17.6278L28.7299 17.6368L28.7186 17.6461L29.9851 19.194ZM30.2231 17.57L28.7283 18.8987L28.7484 18.9213L28.7691 18.9432L30.2231 17.57ZM29.5511 17.164L28.8291 19.0291L28.8648 19.0429L28.901 19.0554L29.5511 17.164ZM28.4871 16.856L28.921 14.9036L28.912 14.9016L28.4871 16.856ZM28.1651 16.786L27.7313 18.7384L27.7403 18.7404L28.1651 16.786ZM26.4291 16.226L25.5488 18.0218L25.5698 18.0321L25.591 18.0419L26.4291 16.226ZM25.3231 15.316L23.6654 16.4349L23.6749 16.449L23.6847 16.4629L25.3231 15.316ZM25.3651 12.334L23.7066 11.2163L23.701 11.2246L25.3651 12.334ZM26.5691 11.354L27.369 13.1871L27.3767 13.1837L27.3844 13.1803L26.5691 11.354ZM30.2651 11.368L29.447 13.193L29.4658 13.2015L29.4848 13.2095L30.2651 11.368ZM31.5531 12.432L29.874 13.5185L29.8864 13.5377L29.8993 13.5566L31.5531 12.432ZM32.0291 14.616V16.616H34.0291V14.616H32.0291ZM30.2091 14.616H28.2091V16.616H30.2091V14.616ZM29.9851 13.3L28.2701 14.329L28.2946 14.3698L28.321 14.4094L29.9851 13.3ZM29.3691 12.796L28.6044 14.644L28.6319 14.6554L28.6598 14.666L29.3691 12.796ZM27.1571 12.95L28.3928 14.5227L28.3999 14.517L27.1571 12.95ZM26.9471 14.42L25.3258 15.591L25.3466 15.6198L25.3684 15.6479L26.9471 14.42ZM28.4871 15.134L28.912 13.1796L28.9062 13.1784L28.4871 15.134ZM28.8091 15.204L28.3843 17.1584L28.3918 17.16L28.8091 15.204ZM30.6291 15.778L29.8015 17.5988L29.8138 17.6043L30.6291 15.778ZM31.8471 16.702L33.4424 15.4958L33.4424 15.4958L31.8471 16.702ZM31.8191 19.754L30.1602 18.6368L30.155 18.6446L31.8191 19.754ZM30.5311 20.818L31.3634 22.6366L31.3701 22.6335L31.3769 22.6304L30.5311 20.818ZM28.5711 19.196C28.0548 19.196 27.6856 19.1043 27.4165 18.9784L25.7217 22.6016C26.6099 23.0171 27.5754 23.196 28.5711 23.196V19.196ZM27.4165 18.9784C27.1546 18.8559 26.9992 18.7096 26.8894 18.5402L23.5328 20.7158C24.0763 21.5544 24.8263 22.1828 25.7217 22.6016L27.4165 18.9784ZM26.8894 18.5402C26.8083 18.415 26.7211 18.2024 26.7211 17.808H22.7211C22.7211 18.8323 22.9606 19.833 23.5328 20.7158L26.8894 18.5402ZM26.7211 17.808V17.416H22.7211V17.808H26.7211ZM24.7211 19.416H26.5411V15.416H24.7211V19.416ZM24.5411 17.416V17.808H28.5411V17.416H24.5411ZM24.5411 17.808C24.5411 18.8322 24.8789 19.9132 25.8185 20.6841L28.3558 17.5919C28.3905 17.6204 28.4266 17.6573 28.4591 17.7015C28.4916 17.7456 28.5137 17.7877 28.5278 17.822C28.5554 17.8893 28.5411 17.8989 28.5411 17.808H24.5411ZM25.8426 20.7036C26.6655 21.3577 27.6492 21.572 28.5711 21.572V17.572C28.4095 17.572 28.3235 17.553 28.2925 17.5439C28.2667 17.5364 28.2901 17.5393 28.3316 17.5724L25.8426 20.7036ZM28.5711 21.572C29.4101 21.572 30.428 21.4158 31.2516 20.7419L28.7186 17.6461C28.8283 17.5563 28.9059 17.5395 28.8841 17.5453C28.8737 17.5481 28.8438 17.5551 28.7901 17.5612C28.7366 17.5673 28.6644 17.572 28.5711 17.572V21.572ZM31.2289 20.7602C32.0053 20.1437 32.4611 19.2536 32.4611 18.228H28.4611C28.4611 18.1461 28.4798 18.0181 28.5481 17.8795C28.6154 17.7429 28.6984 17.6619 28.7414 17.6278L31.2289 20.7602ZM32.4611 18.228C32.4611 17.5402 32.2458 16.7988 31.6771 16.1968L28.7691 18.9432C28.6584 18.826 28.5735 18.6864 28.5209 18.5408C28.4701 18.4004 28.4611 18.2881 28.4611 18.228H32.4611ZM31.7179 16.2413C31.2661 15.7329 30.7004 15.4442 30.2013 15.2726L28.901 19.0554C28.9428 19.0697 28.94 19.0732 28.9089 19.0543C28.8765 19.0348 28.8069 18.9871 28.7283 18.8987L31.7179 16.2413ZM30.2731 15.2989C29.862 15.1397 29.4046 15.0111 28.921 14.9036L28.0533 18.8084C28.4097 18.8876 28.6615 18.9643 28.8291 19.0291L30.2731 15.2989ZM28.912 14.9016L28.59 14.8316L27.7403 18.7404L28.0623 18.8104L28.912 14.9016ZM28.599 14.8336C28.0287 14.7069 27.5923 14.5601 27.2672 14.4101L25.591 18.0419C26.2366 18.3399 26.9576 18.5664 27.7313 18.7384L28.599 14.8336ZM27.3094 14.4302C27.087 14.3211 26.9995 14.2233 26.9616 14.1691L23.6847 16.4629C24.1694 17.1554 24.8192 17.6642 25.5488 18.0218L27.3094 14.4302ZM26.9808 14.1971C27.0141 14.2463 26.9451 14.1864 26.9451 13.86H22.9451C22.9451 14.7282 23.1281 15.639 23.6654 16.4349L26.9808 14.1971ZM26.9451 13.86C26.9451 13.5837 27.0059 13.4784 27.0292 13.4434L23.701 11.2246C23.1644 12.0296 22.9451 12.9416 22.9451 13.86H26.9451ZM27.0237 13.4517C27.0832 13.3634 27.1744 13.272 27.369 13.1871L25.7692 9.52092C24.9372 9.88399 24.2257 10.4459 23.7066 11.2163L27.0237 13.4517ZM27.3844 13.1803C27.6 13.084 27.9229 13.004 28.4031 13.004V9.004C27.4833 9.004 26.5836 9.1573 25.7538 9.52772L27.3844 13.1803ZM28.4031 13.004C28.8713 13.004 29.2051 13.0846 29.447 13.193L31.0832 9.54298C30.2425 9.16608 29.335 9.004 28.4031 9.004V13.004ZM29.4848 13.2095C29.6884 13.2958 29.7956 13.3973 29.874 13.5185L33.2323 11.3455C32.6947 10.5147 31.9431 9.90689 31.0454 9.5265L29.4848 13.2095ZM29.8993 13.5566C29.9392 13.6154 30.0291 13.7845 30.0291 14.196H34.0291C34.0291 13.1888 33.8017 12.1819 33.207 11.3074L29.8993 13.5566ZM30.0291 14.196V14.616H34.0291V14.196H30.0291ZM32.0291 12.616H30.2091V16.616H32.0291V12.616ZM32.2091 14.616V14.196H28.2091V14.616H32.2091ZM32.2091 14.196C32.2091 13.5754 32.0872 12.8475 31.6492 12.1906L28.321 14.4094C28.2517 14.3054 28.2232 14.2187 28.2128 14.1771C28.2032 14.1384 28.2091 14.1395 28.2091 14.196H32.2091ZM31.7001 12.271C31.3135 11.6267 30.7405 11.1771 30.0784 10.926L28.6598 14.666C28.6116 14.6477 28.5386 14.6115 28.4596 14.5469C28.3794 14.4813 28.3155 14.4047 28.2701 14.329L31.7001 12.271ZM30.1338 10.948C29.5641 10.7122 28.9697 10.628 28.4031 10.628V14.628C28.5832 14.628 28.6328 14.6558 28.6044 14.644L30.1338 10.948ZM28.4031 10.628C27.6517 10.628 26.699 10.7606 25.9143 11.383L28.3999 14.517C28.3354 14.5682 28.2779 14.6004 28.2371 14.6196C28.1969 14.6384 28.1729 14.6447 28.172 14.6449C28.1713 14.6451 28.1889 14.6405 28.229 14.6361C28.269 14.6317 28.3262 14.628 28.4031 14.628V10.628ZM25.9215 11.3774C25.1272 12.0014 24.7651 12.8932 24.7651 13.804H28.7651C28.7651 13.8636 28.7535 13.9933 28.6808 14.1518C28.6054 14.3159 28.4963 14.4413 28.3928 14.5226L25.9215 11.3774ZM24.7651 13.804C24.7651 14.3929 24.9181 15.0266 25.3258 15.591L28.5685 13.249C28.6445 13.3543 28.6971 13.4665 28.7287 13.5733C28.7594 13.6773 28.7651 13.7586 28.7651 13.804H24.7651ZM25.3684 15.6479C25.7523 16.1414 26.2422 16.4602 26.7088 16.6676L28.3334 13.0124C28.296 12.9958 28.4033 13.0346 28.5258 13.1921L25.3684 15.6479ZM26.7088 16.6676C27.1299 16.8547 27.596 16.9884 28.0681 17.0896L28.9062 13.1784C28.5943 13.1116 28.4164 13.0493 28.3334 13.0124L26.7088 16.6676ZM28.0623 17.0884L28.3843 17.1584L29.234 13.2496L28.912 13.1796L28.0623 17.0884ZM28.3918 17.16C28.9864 17.2868 29.4493 17.4386 29.8015 17.5987L31.4567 13.9573C30.7823 13.6507 30.0318 13.4198 29.2264 13.248L28.3918 17.16ZM29.8138 17.6043C30.0878 17.7266 30.2019 17.8423 30.2518 17.9082L33.4424 15.4958C32.9136 14.7964 32.2158 14.2961 31.4444 13.9517L29.8138 17.6043ZM30.2518 17.9082C30.242 17.8952 30.2459 17.8937 30.2545 17.9228C30.2643 17.9559 30.2811 18.0335 30.2811 18.172H34.2811C34.2811 17.2478 34.0531 16.3034 33.4424 15.4958L30.2518 17.9082ZM30.2811 18.172C30.2811 18.406 30.2272 18.5373 30.1602 18.6368L33.478 20.8712C34.027 20.056 34.2811 19.1326 34.2811 18.172H30.2811ZM30.155 18.6446C30.0882 18.7449 29.9633 18.8759 29.6853 19.0056L31.3769 22.6304C32.2189 22.2374 32.9527 21.6591 33.4832 20.8634L30.155 18.6446ZM29.6989 18.9994C29.4658 19.106 29.1092 19.196 28.5711 19.196V23.196C29.545 23.196 30.4951 23.034 31.3634 22.6366L29.6989 18.9994Z" fill="url(#paint0_radial_1111_3566)" fill-opacity="0.1" mask="url(#path-2-inside-1_1111_3566)"/>
</g>
</g>
</g>
<defs>
<filter id="filter0_d_1111_3566" x="0" y="0" width="40" height="40" filterUnits="userSpaceOnUse" color-interpolation-filters="sRGB">
<feFlood flood-opacity="0" result="BackgroundImageFix"/>
<feColorMatrix in="SourceAlpha" type="matrix" values="0 0 0 0 0 0 0 0 0 0 0 0 0 0 0 0 0 0 127 0" result="hardAlpha"/>
<feOffset dy="4"/>
<feGaussianBlur stdDeviation="2"/>
<feComposite in2="hardAlpha" operator="out"/>
<feColorMatrix type="matrix" values="0 0 0 0 0 0 0 0 0 0 0 0 0 0 0 0 0 0 0.25 0"/>
<feBlend mode="normal" in2="BackgroundImageFix" result="effect1_dropShadow_1111_3566"/>
<feBlend mode="normal" in="SourceGraphic" in2="effect1_dropShadow_1111_3566" result="shape"/>
</filter>
<filter id="filter1_d_1111_3566" x="7.74023" y="10.004" width="24.541" height="11.192" filterUnits="userSpaceOnUse" color-interpolation-filters="sRGB">
<feFlood flood-opacity="0" result="BackgroundImageFix"/>
<feColorMatrix in="SourceAlpha" type="matrix" values="0 0 0 0 0 0 0 0 0 0 0 0 0 0 0 0 0 0 127 0" result="hardAlpha"/>
<feOffset dy="-1"/>
<feComposite in2="hardAlpha" operator="out"/>
<feColorMatrix type="matrix" values="0 0 0 0 1 0 0 0 0 1 0 0 0 0 1 0 0 0 0.5 0"/>
<feBlend mode="normal" in2="BackgroundImageFix" result="effect1_dropShadow_1111_3566"/>
<feBlend mode="normal" in="SourceGraphic" in2="effect1_dropShadow_1111_3566" result="shape"/>
</filter>
<radialGradient id="paint0_radial_1111_3566" cx="0" cy="0" r="1" gradientUnits="userSpaceOnUse" gradientTransform="translate(20 16) rotate(90) scale(87.596)">
<stop stop-color="white"/>
<stop offset="1"/>
</radialGradient>
<clipPath id="clip0_1111_3566">
<rect x="4" width="32" height="32" rx="6" fill="white"/>
</clipPath>
</defs>
</svg>
